<?xml version="1.0" encoding="utf-8"?>
<!-- Generator: Adobe Illustrator 25.4.1, SVG Export Plug-In . SVG Version: 6.00 Build 0)  -->
<svg version="1.1" id="Layer_1" xmlns="http://www.w3.org/2000/svg" xmlns:xlink="http://www.w3.org/1999/xlink" x="0px" y="0px"
	 viewBox="0 0 200 51.8" style="enable-background:new 0 0 200 51.8;" xml:space="preserve">
<style type="text/css">
	.st0{fill:#32B783;}
	.st1{fill:#1FB68F;}
	.st2{fill:#4DB963;}
	.st3{fill:#04B5A5;}
	.st4{fill:#6FC16C;}
	.st5{fill:#00B4B5;}
	.st6{fill:#03AAB2;}
	.st7{fill:#00A595;}
	.st8{opacity:0.5;}
</style>
<g>
	<g>
		<path class="st0" d="M26.8,50.9H25c-2.2,0-4.3-0.3-6.4-0.8l-1.8-0.5l0.9-3.5l1.8,0.5c1.8,0.5,3.6,0.7,5.5,0.7h1.8L26.8,50.9z"/>
		<path class="st1" d="M29.7,50.5L28.7,47l1.8-0.5c1.8-0.5,3.5-1.2,5.1-2.1l1.6-0.9l1.8,3.2l-1.6,0.9c-1.9,1.1-3.9,1.9-6,2.5
			L29.7,50.5z"/>
		<path class="st2" d="M14.1,48.5l-1.6-0.9c-1.9-1.1-3.6-2.4-5.2-4L6,42.3l2.6-2.6L9.9,41c1.3,1.3,2.8,2.5,4.4,3.4l1.6,0.9
			L14.1,48.5z"/>
		<path class="st3" d="M41.3,44.9l-2.6-2.6L40,41c1.3-1.3,2.5-2.8,3.4-4.4l0.9-1.6l3.2,1.8l-0.9,1.6c-1.1,1.9-2.4,3.6-4,5.2
			L41.3,44.9z"/>
		<path class="st4" d="M4.3,40.1l-0.9-1.6c-1.1-1.9-1.9-3.9-2.5-6l-0.5-1.8l3.5-0.9l0.5,1.8c0.5,1.8,1.2,3.5,2.1,5.1l0.9,1.6
			L4.3,40.1z"/>
		<path class="st5" d="M48.6,34.2l-3.5-0.9l0.5-1.8c0.5-1.8,0.7-3.6,0.7-5.5v-1.9h3.7V26c0,2.2-0.3,4.4-0.8,6.5L48.6,34.2z"/>
		<path class="st4" d="M0,27.8V26c0-2.2,0.3-4.3,0.8-6.4l0.5-1.8l3.5,0.9l-0.5,1.8c-0.5,1.8-0.7,3.6-0.7,5.5v1.8L0,27.8z"/>
		<path class="st6" d="M46,22.2l-0.5-1.8c-0.5-1.8-1.2-3.5-2.1-5.1l-0.9-1.6l3.2-1.8l0.9,1.6c1.1,1.9,1.9,3.9,2.5,6l0.5,1.8L46,22.2
			z"/>
		<path class="st0" d="M5.6,16.9l-3.2-1.8l0.9-1.6c1.1-1.9,2.4-3.6,4-5.2l1.3-1.3l2.6,2.6l-1.3,1.3c-1.3,1.3-2.5,2.8-3.4,4.4
			L5.6,16.9z"/>
		<path class="st7" d="M41.3,12.2L40,10.9c-1.3-1.3-2.8-2.5-4.4-3.4L34,6.6l1.8-3.2l1.6,0.9c1.9,1.1,3.6,2.4,5.2,4l1.3,1.3
			L41.3,12.2z"/>
		<path class="st1" d="M12.7,8.5l-1.8-3.2l1.6-0.9c1.9-1.1,3.9-1.9,6-2.5l1.8-0.5l1,3.5l-1.8,0.5c-1.8,0.5-3.5,1.2-5.1,2.1L12.7,8.5
			z"/>
		<path class="st3" d="M32.2,5.8l-1.8-0.5c-1.8-0.5-3.6-0.7-5.5-0.7l-1.9,0V1h1.9c2.2,0,4.3,0.3,6.4,0.8l1.8,0.5L32.2,5.8z"/>
		<path class="st1" d="M25,29.9c0.9-1.1,1.7-2.1,2.5-3.1c6.6-8,13.3-16,19.9-24c0.7-0.8,1.4-1.5,2.1-2.2c0.3-0.3,0.7-0.5,1-0.6
			C52-0.6,53,0.3,52.8,1.8c-0.1,1-0.6,1.9-1.1,2.8c-6.2,9.6-12.3,19.2-18.5,28.8c-1.3,2.1-2.7,4.2-4,6.2c-1.7,2.7-5.3,3-7.4,0.6
			c-3.7-4.2-7.3-8.5-10.9-12.7c-2.1-2.5-1.2-6.1,1.8-7.3c1.8-0.7,3.8-0.1,5.2,1.5c2.2,2.6,4.4,5.1,6.6,7.7
			C24.6,29.5,24.8,29.7,25,29.9z"/>
	</g>
	<g>
		<g class="st8">
			<path d="M92.6,1v10.3h-2L85.5,5v6.2h-2.3V1h2l5.1,6.2V1H92.6z"/>
			<path d="M97.9,10.7c-0.9-0.5-1.5-1.1-2-1.9c-0.5-0.8-0.7-1.7-0.7-2.7c0-1,0.2-1.9,0.7-2.7c0.5-0.8,1.2-1.4,2-1.9
				c0.9-0.5,1.8-0.7,2.9-0.7c1.1,0,2,0.2,2.9,0.7c0.9,0.5,1.5,1.1,2,1.9c0.5,0.8,0.7,1.7,0.7,2.7c0,1-0.2,1.9-0.7,2.7
				c-0.5,0.8-1.2,1.4-2,1.9c-0.9,0.5-1.8,0.7-2.9,0.7C99.7,11.4,98.7,11.2,97.9,10.7z M102.4,9c0.5-0.3,0.9-0.7,1.2-1.2
				c0.3-0.5,0.4-1.1,0.4-1.7c0-0.6-0.1-1.2-0.4-1.7c-0.3-0.5-0.7-0.9-1.2-1.2c-0.5-0.3-1-0.4-1.6-0.4c-0.6,0-1.2,0.1-1.6,0.4
				c-0.5,0.3-0.9,0.7-1.2,1.2c-0.3,0.5-0.4,1.1-0.4,1.7c0,0.6,0.1,1.2,0.4,1.7c0.3,0.5,0.7,0.9,1.2,1.2c0.5,0.3,1,0.4,1.6,0.4
				C101.4,9.4,101.9,9.3,102.4,9z"/>
			<path d="M118.3,1v10.3h-2L111.3,5v6.2h-2.3V1h2l5.1,6.2V1H118.3z"/>
			<path d="M122.5,11.1c-0.8-0.2-1.4-0.5-1.8-0.9l0.8-1.8c0.4,0.3,1,0.6,1.6,0.8c0.6,0.2,1.2,0.3,1.8,0.3c0.7,0,1.2-0.1,1.5-0.3
				c0.3-0.2,0.5-0.5,0.5-0.8c0-0.2-0.1-0.4-0.3-0.6c-0.2-0.2-0.4-0.3-0.7-0.4c-0.3-0.1-0.7-0.2-1.2-0.3c-0.8-0.2-1.4-0.4-1.9-0.6
				c-0.5-0.2-0.9-0.5-1.3-0.9s-0.5-1-0.5-1.6c0-0.6,0.2-1.1,0.5-1.6c0.3-0.5,0.8-0.9,1.5-1.2c0.7-0.3,1.4-0.4,2.4-0.4
				c0.7,0,1.3,0.1,1.9,0.2c0.6,0.2,1.2,0.4,1.6,0.7l-0.7,1.8c-0.9-0.5-1.9-0.8-2.8-0.8c-0.7,0-1.2,0.1-1.5,0.3
				c-0.3,0.2-0.5,0.5-0.5,0.9c0,0.4,0.2,0.6,0.6,0.8c0.4,0.2,0.9,0.3,1.7,0.5c0.8,0.2,1.4,0.4,1.9,0.6c0.5,0.2,0.9,0.5,1.3,0.9
				c0.4,0.4,0.5,0.9,0.5,1.6c0,0.6-0.2,1.1-0.5,1.6c-0.3,0.5-0.8,0.9-1.5,1.2c-0.7,0.3-1.5,0.4-2.4,0.4
				C124.1,11.4,123.3,11.3,122.5,11.1z"/>
			<path d="M133.6,2.9h-3.3V1h9v1.9h-3.3v8.3h-2.4V2.9z"/>
			<path d="M143.2,10.7c-0.9-0.5-1.5-1.1-2-1.9c-0.5-0.8-0.7-1.7-0.7-2.7c0-1,0.2-1.9,0.7-2.7c0.5-0.8,1.2-1.4,2-1.9
				c0.9-0.5,1.8-0.7,2.9-0.7c1.1,0,2,0.2,2.9,0.7c0.9,0.5,1.5,1.1,2,1.9c0.5,0.8,0.7,1.7,0.7,2.7c0,1-0.2,1.9-0.7,2.7
				c-0.5,0.8-1.2,1.4-2,1.9c-0.9,0.5-1.8,0.7-2.9,0.7C145,11.4,144,11.2,143.2,10.7z M147.7,9c0.5-0.3,0.9-0.7,1.2-1.2
				c0.3-0.5,0.4-1.1,0.4-1.7c0-0.6-0.1-1.2-0.4-1.7c-0.3-0.5-0.7-0.9-1.2-1.2c-0.5-0.3-1-0.4-1.6-0.4c-0.6,0-1.2,0.1-1.6,0.4
				c-0.5,0.3-0.9,0.7-1.2,1.2c-0.3,0.5-0.4,1.1-0.4,1.7c0,0.6,0.1,1.2,0.4,1.7c0.3,0.5,0.7,0.9,1.2,1.2c0.5,0.3,1,0.4,1.6,0.4
				C146.7,9.4,147.2,9.3,147.7,9z"/>
			<path d="M161,1.4c0.7,0.3,1.2,0.7,1.5,1.3c0.4,0.6,0.5,1.2,0.5,2c0,0.8-0.2,1.4-0.5,2c-0.4,0.6-0.9,1-1.5,1.3
				c-0.7,0.3-1.5,0.4-2.4,0.4h-2.1v2.8h-2.4V1h4.4C159.6,1,160.4,1.1,161,1.4z M160.2,6c0.4-0.3,0.6-0.7,0.6-1.3
				c0-0.6-0.2-1-0.6-1.3c-0.4-0.3-0.9-0.5-1.6-0.5h-1.9v3.6h1.9C159.2,6.5,159.8,6.3,160.2,6z"/>
		</g>
		<g>
			<path d="M68.9,39.5c-0.1,0.6-0.2,1.2-0.2,1.7c0,1.3,0.3,2.2,1,2.9c0.7,0.7,1.7,1,3.1,1c1.7,0,3.2-0.5,4.5-1.5l1.2,4.3
				c-1.9,1.3-4.3,2-7.3,2c-2.5,0-4.5-0.7-6-2.1C63.7,46.4,63,44.5,63,42c0-0.8,0.1-1.6,0.2-2.4l3.4-16.9h-5.4l0.9-4.7h5.4l1.4-6.9
				h5.7L73.3,18h9.1l-1,4.7h-9.1L68.9,39.5z"/>
			<path d="M123,18l-6.3,31.6h-5.5l0.8-3.9c-1.4,1.4-3.1,2.4-5,3.1c-1.9,0.7-3.9,1.1-6.2,1.1c-2.7,0-5.1-0.5-7.2-1.6
				c-2.1-1.1-3.8-2.7-4.9-4.7c-1.2-2.1-1.8-4.5-1.8-7.3c0-3.6,0.8-6.8,2.3-9.6c1.5-2.8,3.7-5,6.4-6.6c2.7-1.6,5.8-2.4,9.1-2.4
				c2.7,0,5,0.5,6.9,1.4c1.9,1,3.4,2.4,4.4,4.2l1.1-5.4H123z M108.5,43.2c1.9-1.1,3.4-2.7,4.4-4.7c1.1-2,1.6-4.3,1.6-6.9
				c0-2.8-0.8-5-2.4-6.6c-1.6-1.5-4-2.3-7-2.3c-2.3,0-4.4,0.6-6.3,1.7c-1.9,1.1-3.3,2.7-4.4,4.7c-1.1,2-1.6,4.3-1.6,6.9
				c0,2.8,0.8,5,2.5,6.5c1.6,1.6,4,2.4,6.9,2.4C104.5,44.9,106.6,44.4,108.5,43.2z"/>
			<path d="M133.1,48.9c-2.4-0.7-4.2-1.5-5.5-2.6l2.6-4.5c1.2,1,2.8,1.8,4.8,2.4c2,0.6,4,0.9,6.2,0.9c2.7,0,4.8-0.4,6.2-1.2
				c1.4-0.8,2.1-2,2.1-3.4c0-1.2-0.6-2-1.7-2.6c-1.1-0.5-2.9-1-5.3-1.5c-2.2-0.5-4-1-5.4-1.5c-1.4-0.5-2.6-1.3-3.6-2.4
				c-1-1.1-1.5-2.6-1.5-4.4c0-2.1,0.6-3.9,1.8-5.4c1.2-1.5,2.8-2.7,5-3.6c2.2-0.8,4.7-1.3,7.5-1.3c2.1,0,4.1,0.3,6.1,0.8
				c2,0.5,3.6,1.2,4.9,2.1l-2.3,4.5c-1.2-0.8-2.7-1.5-4.3-1.9c-1.6-0.4-3.3-0.6-5-0.6c-2.6,0-4.6,0.4-6,1.3c-1.4,0.9-2.1,2-2.1,3.4
				c0,1.3,0.6,2.2,1.7,2.7c1.2,0.5,2.9,1.1,5.4,1.6c2.2,0.5,4,1,5.4,1.4c1.4,0.5,2.6,1.3,3.5,2.3c1,1.1,1.5,2.5,1.5,4.3
				c0,3.2-1.3,5.7-4,7.5c-2.6,1.8-6.1,2.7-10.5,2.7C137.9,49.9,135.5,49.6,133.1,48.9z"/>
			<path d="M183.1,31.3l11.3,18.3h-6.6l-9.1-14.9l-7.7,6l-1.8,8.9h-5.7l8.8-44.2h5.7l-5.6,28.1L192,18h8L183.1,31.3z"/>
		</g>
	</g>
</g>
</svg>
